Coordinates
version=1
nRows=27
nColumns=38
inDegrees=no

Units are S.I. units (second, meters, Newtons, ...)
If the header above contains a line with 'inDegrees', this indicates whether rotational values are in degrees (yes) or radians (no).

endheader
time	pelvis_tilt	pelvis_list	pelvis_rotation	pelvis_tx	pelvis_ty	pelvis_tz	hip_flexion_r	hip_adduction_r	hip_rotation_r	knee_angle_r	ankle_angle_r	subtalar_angle_r	mtp_angle_r	hip_flexion_l	hip_adduction_l	hip_rotation_l	knee_angle_l	ankle_angle_l	subtalar_angle_l	mtp_angle_l	lumbar_extension	lumbar_bending	lumbar_rotation	arm_flex_r	arm_add_r	arm_rot_r	elbow_flex_r	pro_sup_r	wrist_flex_r	wrist_dev_r	arm_flex_l	arm_add_l	arm_rot_l	elbow_flex_l	pro_sup_l	wrist_flex_l	wrist_dev_l
0	-2.75892	1.35034	1.33269	0.687745	0.862517	0.989503	0.782428	0.0220421	-0.0749869	0.731743	0.0760615	0	0	0.0534979	-0.201931	-0.156944	0.75119	0.0843826	0	0	0.236933	0.190383	-0.301545	-0.27039	-0.279714	1.05116	0.280453	0.797812	0	0	-0.0598077	-0.383128	0.341658	0.605587	1.40767	0	0
0.01	-2.7562	1.34677	1.32189	0.685749	0.849808	0.990157	0.786405	0.0314477	-0.0677594	0.748635	0.0645578	0	0	0.0693236	-0.202202	-0.139	0.788772	0.0579713	0	0	0.238905	0.195416	-0.292765	-0.263328	-0.282646	1.04152	0.281913	0.807269	0	0	-0.0691574	-0.373012	0.333112	0.601955	1.41919	0	0
0.02	-2.74742	1.34569	1.30465	0.683777	0.836383	0.991147	0.783061	0.0418382	-0.0648705	0.76047	0.0568729	0	0	0.083111	-0.203399	-0.125182	0.825983	0.027093	0	0	0.238873	0.201129	-0.282188	-0.257218	-0.286599	1.03199	0.284969	0.815844	0	0	-0.0776607	-0.36344	0.332126	0.597127	1.4383	0	0
0.03	-2.73674	1.34584	1.28661	0.681802	0.823004	0.992238	0.775751	0.0514904	-0.0666233	0.768772	0.0531891	0	0	0.098357	-0.204232	-0.110192	0.865233	-0.00347082	0	0	0.237327	0.206268	-0.271468	-0.2504	-0.290661	1.02286	0.289022	0.823816	0	0	-0.0848409	-0.355802	0.338776	0.59228	1.45971	0	0
0.04	-2.72327	1.34636	1.26738	0.679853	0.809933	0.993333	0.766089	0.0601471	-0.0737096	0.773758	0.0517873	0	0	0.116507	-0.20461	-0.0922664	0.90763	-0.0284893	0	0	0.234755	0.210974	-0.261591	-0.242065	-0.294385	1.01448	0.293169	0.831354	0	0	-0.0906648	-0.35013	0.352658	0.587913	1.47857	0	0
0.05	-2.70889	1.34573	1.24879	0.678058	0.797253	0.994291	0.756731	0.0680991	-0.0836617	0.776916	0.0528064	0	0	0.139501	-0.204489	-0.071809	0.953414	-0.0562834	0	0	0.231473	0.216102	-0.253069	-0.234662	-0.299961	0.986898	0.303256	0.849792	0	0	-0.0985156	-0.337759	0.338707	0.582002	1.53877	0	0
0.06	-2.69464	1.34559	1.23113	0.676343	0.785017	0.99526	0.745946	0.076127	-0.0915823	0.778373	0.0556239	0	0	0.164811	-0.203054	-0.0495198	1.00199	-0.0771385	0	0	0.228483	0.219794	-0.245456	-0.217371	-0.3086	1.02776	0.311371	0.805149	0	0	-0.101604	-0.334776	0.365289	0.576896	1.54436	0	0
0.07	-2.682	1.34495	1.21437	0.674647	0.773008	0.996203	0.734981	0.0852856	-0.0948734	0.77971	0.0623745	0	0	0.192582	-0.201489	-0.0291999	1.05157	-0.103298	0	0	0.224573	0.223523	-0.23638	-0.204098	-0.316569	1.02771	0.323135	0.793469	0	0	-0.106111	-0.326774	0.372321	0.569596	1.5708	0	0
0.08	-2.66778	1.34555	1.1959	0.673076	0.761256	0.997342	0.721564	0.0945605	-0.0944082	0.780758	0.071083	0	0	0.220501	-0.199571	-0.0101898	1.10038	-0.132141	0	0	0.218844	0.226924	-0.226786	-0.190027	-0.325077	1.02428	0.336216	0.783448	0	0	-0.107676	-0.32053	0.392609	0.560631	1.5708	0	0
0.09	-2.65343	1.34747	1.17717	0.671699	0.749678	0.998731	0.705212	0.102946	-0.0904539	0.780422	0.0824814	0	0	0.24805	-0.197322	0.00594892	1.14601	-0.166045	0	0	0.211537	0.23076	-0.205398	-0.195821	-0.32757	0.916517	0.354008	0.85888	0	0	-0.0950484	-0.314521	0.440584	0.540674	1.5708	0	0
0.1	-2.64383	1.35049	1.16319	0.670424	0.73822	1.00032	0.686715	0.109269	-0.0840798	0.778664	0.0906079	0	0	0.274824	-0.193359	0.0198738	1.18763	-0.185117	0	0	0.202312	0.231412	-0.197056	-0.177789	-0.335099	0.916309	0.364195	0.852088	0	0	-0.0986505	-0.305343	0.447464	0.530387	1.5708	0	0
0.11	-2.64024	1.35398	1.15445	0.66919	0.726835	1.00206	0.66689	0.114229	-0.076292	0.775255	0.101128	0	0	0.301039	-0.188578	0.0295705	1.22394	-0.201665	0	0	0.19348	0.230726	-0.185774	-0.161813	-0.344308	0.911403	0.378518	0.844049	0	0	-0.0997197	-0.295333	0.457491	0.516287	1.5708	0	0
0.12	-2.64173	1.35784	1.15017	0.667989	0.715523	1.00385	0.646747	0.117883	-0.0689651	0.771062	0.111322	0	0	0.326531	-0.183023	0.0358836	1.25585	-0.209143	0	0	0.184635	0.228819	-0.172796	-0.146464	-0.354221	0.904669	0.394465	0.837323	0	0	-0.100398	-0.284968	0.466285	0.501239	1.5708	0	0
0.13	-2.64691	1.36201	1.14889	0.666813	0.704301	1.00563	0.627058	0.120702	-0.0623582	0.766273	0.120885	0	0	0.351395	-0.177337	0.0382993	1.28395	-0.207278	0	0	0.175764	0.225954	-0.158272	-0.132139	-0.36551	0.896002	0.413335	0.831903	0	0	-0.101351	-0.274984	0.474132	0.486744	1.5708	0	0
0.14	-2.6492	1.36628	1.14485	0.665694	0.693118	1.00741	0.60678	0.124097	-0.0572148	0.759428	0.132664	0	0	0.375548	-0.173029	0.0376462	1.30909	-0.190175	0	0	0.167965	0.224959	-0.133059	-0.138389	-0.378995	0.825101	0.448876	0.864084	0	0	-0.0889797	-0.268528	0.529396	0.464401	1.53341	0	0
0.15	-2.66126	1.36956	1.15067	0.664488	0.681886	1.00912	0.589666	0.125892	-0.0546748	0.754702	0.136001	0	0	0.400721	-0.167117	0.0364777	1.32846	-0.178446	0	0	0.161497	0.219785	-0.121101	-0.12172	-0.388033	0.821693	0.462424	0.864343	0	0	-0.0954954	-0.25996	0.526615	0.455997	1.53031	0	0
0.16	-2.66919	1.37323	1.15211	0.663317	0.670681	1.01081	0.570111	0.12865	-0.051657	0.746096	0.142101	0	0	0.424812	-0.16285	0.0328274	1.3461	-0.152912	0	0	0.1545	0.216028	-0.108772	-0.108375	-0.401636	0.811561	0.48587	0.864528	0	0	-0.101792	-0.250463	0.523897	0.445808	1.5225	0	0
0.17	-2.67558	1.37757	1.15168	0.6622	0.659566	1.01245	0.548914	0.13114	-0.0496242	0.736717	0.151128	0	0	0.447032	-0.158848	0.0281512	1.36038	-0.111169	0	0	0.147278	0.213459	-0.0856678	-0.115037	-0.413281	0.742521	0.520126	0.904392	0	0	-0.0958563	-0.246912	0.575895	0.433453	1.4559	0	0
0.18	-2.68258	1.38176	1.15312	0.661062	0.648459	1.01409	0.526504	0.132589	-0.0475994	0.72542	0.158442	0	0	0.46967	-0.155389	0.0228282	1.36962	-0.0829084	0	0	0.140095	0.209053	-0.0761238	-0.0974692	-0.427909	0.748905	0.541594	0.894311	0	0	-0.105485	-0.237983	0.562349	0.427954	1.44424	0	0
0.19	-2.68818	1.38673	1.1535	0.659951	0.63745	1.01575	0.502284	0.132838	-0.0460932	0.712813	0.164342	0	0	0.491037	-0.152218	0.0169692	1.37419	-0.0612411	0	0	0.13237	0.204081	-0.0679775	-0.0769952	-0.441457	0.760361	0.55955	0.884221	0	0	-0.116454	-0.229652	0.545244	0.42401	1.43951	0	0
0.2	-2.70387	1.3898	1.1625	0.658713	0.626376	1.01715	0.481258	0.131716	-0.0441915	0.702924	0.170727	0	0	0.513714	-0.149414	0.00898969	1.37387	-0.046377	0	0	0.128792	0.198113	-0.0540631	-0.0642989	-0.45141	0.750589	0.575625	0.890084	0	0	-0.123917	-0.223896	0.54779	0.418255	1.43111	0	0
0.21	-2.70723	1.39599	1.15701	0.657343	0.615076	1.0188	0.453053	0.132454	-0.0389599	0.686701	0.181909	0	0	0.529771	-0.150925	-0.00467685	1.36896	-0.0187065	0	0	0.119428	0.194641	-0.0256057	-0.0807731	-0.45403	0.652366	0.603986	0.963927	0	0	-0.118964	-0.222706	0.59824	0.410493	1.37569	0	0
0.22	-2.71576	1.40087	1.15925	0.656269	0.603978	1.02019	0.428112	0.130923	-0.0382713	0.673503	0.189177	0	0	0.547979	-0.150905	-0.0159039	1.35966	-0.00214585	0	0	0.112875	0.189571	-0.0148563	-0.0646302	-0.468042	0.656972	0.623178	0.953992	0	0	-0.128736	-0.215492	0.584966	0.407483	1.37307	0	0
0.23	-2.72328	1.40777	1.15965	0.655229	0.592903	1.02161	0.402026	0.128293	-0.0393533	0.660946	0.195127	0	0	0.561706	-0.150705	-0.0270999	1.34542	0.0163284	0	0	0.103727	0.184159	-0.00432836	-0.0457485	-0.483757	0.668375	0.642658	0.937543	0	0	-0.138613	-0.207636	0.566115	0.405008	1.37538	0	0
0.24	-2.73361	1.41471	1.16185	0.654096	0.581739	1.02286	0.377506	0.125141	-0.0411912	0.650792	0.199319	0	0	0.573407	-0.152343	-0.041841	1.327	0.0338134	0	0	0.0954589	0.178135	0.00527208	-0.0235677	-0.499947	0.688908	0.660126	0.915921	0	0	-0.150017	-0.200202	0.544592	0.403641	1.38575	0	0
0.25	-2.73709	1.42338	1.15637	0.652871	0.570467	1.02411	0.351095	0.122499	-0.0432588	0.640986	0.204619	0	0	0.581643	-0.158675	-0.0647517	1.30542	0.0493111	0	0	0.0834834	0.173029	0.0405886	-0.0589772	-0.492055	0.544618	0.68902	1.03578	0	0	-0.13903	-0.205905	0.622543	0.400355	1.32974	0	0
0.26	-2.72397	1.43458	1.13375	0.651615	0.559061	1.02532	0.321418	0.120651	-0.0467619	0.632025	0.210314	0	0	0.586296	-0.174069	-0.102442	1.2832	0.0574762	0	0	0.068925	0.168604	0.0559993	-0.0480615	-0.507408	0.540854	0.712368	1.02765	0	0	-0.146602	-0.202313	0.616663	0.401255	1.34257	0	0
